<?xml version="1.0" encoding="UTF-8"?>
<svg version="1.1" xmlns="http://www.w3.org/2000/svg" width="461" height="461">
<path d="M0 0 C1.04800781 0.73605469 2.09601563 1.47210938 3.17578125 2.23046875 C19.20048983 13.88287273 33.80413854 27.37809265 46 43 C47.09441406 44.38638672 47.09441406 44.38638672 48.2109375 45.80078125 C84.07634543 92.29996802 100.01764436 151.06869818 92.875 209.375 C88.11265845 243.9432808 75.88883436 278.76519049 55 307 C54.61634277 307.52207031 54.23268555 308.04414063 53.83740234 308.58203125 C48.90246078 315.26366438 43.70391556 321.63797497 38.06640625 327.74609375 C36.23259442 329.7463006 34.48962633 331.79343238 32.75 333.875 C-0.2345431 371.57162069 -51.02911018 394.00648216 -100 400 C-100.72912598 400.0942627 -101.45825195 400.18852539 -102.20947266 400.28564453 C-110.03586557 401.19500925 -117.88076884 401.24341076 -125.75 401.25 C-126.47820953 401.25067474 -127.20641907 401.25134949 -127.95669556 401.25204468 C-140.50938825 401.23366441 -152.65413434 400.40633838 -165 398 C-165.91281738 397.82307617 -166.82563477 397.64615234 -167.76611328 397.46386719 C-225.13099427 386.00869695 -276.24432542 352.72358311 -309.08349609 304.12255859 C-341.11944593 255.38124147 -354.00263524 195.82117968 -342.32592773 138.44335938 C-334.02769824 99.37345437 -317.09408506 63.32598589 -289.71484375 33.92578125 C-287.94436061 32.10607431 -287.94436061 32.10607431 -287 30 C-286.34 30 -285.68 30 -285 30 C-284.73227783 29.40396973 -284.46455566 28.80793945 -284.1887207 28.19384766 C-282.98438605 25.97118362 -281.81460278 24.61854212 -279.98046875 22.8984375 C-279.37734863 22.3310083 -278.77422852 21.7635791 -278.15283203 21.17895508 C-277.17999268 20.28599731 -277.17999268 20.28599731 -276.1875 19.375 C-275.51315918 18.75326904 -274.83881836 18.13153809 -274.14404297 17.4909668 C-268.04370234 11.93184322 -261.74620935 6.75777272 -255 2 C-254.4009082 1.57686523 -253.80181641 1.15373047 -253.18457031 0.71777344 C-178.20552254 -51.47011607 -75.12505616 -53.3406571 0 0 Z M4 111 C4 137.4 4 163.8 4 191 C10.6 191 17.2 191 24 191 C24 164.6 24 138.2 24 111 C17.4 111 10.8 111 4 111 Z M-265.25 152.3125 C-274.90419493 163.83707711 -277.19906837 178.21696532 -276 193 C-274.22008527 205.85953897 -270.46102041 216.78846475 -260 225 C-249.06262823 231.93288243 -237.96716159 233.35600685 -225.4375 230.8125 C-215.74537881 228.38664895 -208.11552058 223.22347014 -202.55859375 214.8203125 C-194.77696811 200.65078521 -194.14624262 183.45833016 -198 168 C-201.43527895 158.11977294 -207.48912094 148.68084768 -216.9375 143.6875 C-233.45352331 136.32950109 -252.77690257 138.99104852 -265.25 152.3125 Z M-170.1875 150.25 C-175.79114018 157.19204243 -176.88842809 164.21582365 -176 173 C-175.00749332 178.70467802 -173.12825089 183.0201523 -168.48046875 186.59765625 C-163.25850787 189.54991445 -157.52153803 191.34750043 -151.875 193.31835938 C-149.40095554 194.21777762 -147.01487436 195.27317481 -144.625 196.375 C-141.35792392 198.13635197 -141.35792392 198.13635197 -139 198 C-138.3879239 205.22249793 -138.3879239 205.22249793 -141.3125 208.9375 C-147.24942184 213.49374234 -154.86175146 212.42196543 -162 212 C-165.77307732 211.26169591 -169.3720639 210.26713776 -173 209 C-175.45417612 214.673142 -177.46246904 219.81839396 -178 226 C-168.06079883 232.62613411 -155.20980353 233.01394835 -143.6875 231.375 C-134.61258094 229.54219727 -126.11689015 225.60165812 -120.3359375 218.19921875 C-115.98045902 211.02923518 -114.81649555 202.84848448 -116.46875 194.68359375 C-118.05129458 189.11642799 -120.35693392 184.56368171 -125 181 C-129.53737432 178.63465198 -134.21038658 176.78901599 -139 175 C-140.08410156 174.58363281 -141.16820312 174.16726562 -142.28515625 173.73828125 C-147.01853414 171.76879719 -147.01853414 171.76879719 -152 171 C-152.91194105 167.43513952 -153.26830444 165.60368499 -151.75 162.1875 C-150 160 -150 160 -147 159 C-138.55701481 158.31293391 -131.07631384 159.5942895 -123 162 C-122.32389577 160.10751181 -121.65949561 158.2108398 -121 156.3125 C-120.62875 155.25675781 -120.2575 154.20101562 -119.875 153.11328125 C-119.0608143 150.21637944 -118.82290204 147.98299377 -119 145 C-134.89897048 137.22716999 -157.44797964 136.61158404 -170.1875 150.25 Z M-96 142 C-96.06998645 149.48532285 -96.1230553 156.97061112 -96.15543652 164.4561882 C-96.17099005 167.93331334 -96.19203537 171.41021211 -96.22631836 174.88720703 C-96.26561778 178.89878317 -96.27979421 182.91012731 -96.29296875 186.921875 C-96.30845261 188.15049255 -96.32393646 189.37911011 -96.33988953 190.6449585 C-96.34221242 202.74485473 -94.61836347 213.8168309 -86.21484375 222.9375 C-78.88321377 229.93388647 -70.87047608 231.51030196 -61 232 C-60.22011719 232.04125 -59.44023437 232.0825 -58.63671875 232.125 C-47.99511465 232.40366721 -36.96799855 230.80043518 -27 227 C-25.23417637 225.23417637 -25.88014439 222.89628001 -25.87557983 220.54483032 C-25.87917511 219.76296356 -25.88277039 218.9810968 -25.88647461 218.17553711 C-25.88632858 217.35609116 -25.88618256 216.5366452 -25.8860321 215.69236755 C-25.88673148 212.97066647 -25.89452499 210.24903295 -25.90234375 207.52734375 C-25.90420784 205.64547259 -25.90563179 203.76360094 -25.90663147 201.88172913 C-25.91045733 196.91851471 -25.92028819 191.95532936 -25.93133545 186.99212646 C-25.9415481 181.93160394 -25.94612878 176.87107673 -25.95117188 171.81054688 C-25.9619104 161.87368512 -25.97898764 151.93684497 -26 142 C-29.74466309 141.20512738 -33.16525041 140.86521748 -37 140.875 C-38.010625 140.87242187 -39.02125 140.86984375 -40.0625 140.8671875 C-43.36840291 140.94227097 -43.36840291 140.94227097 -48 142 C-48 164.77 -48 187.54 -48 211 C-63 211 -63 211 -69 208 C-72.70302909 203.14775498 -73.11126518 198.24421788 -73.20532227 192.29174805 C-73.22526749 191.17096359 -73.24521271 190.05017914 -73.26576233 188.89543152 C-73.28247482 187.6963063 -73.29918732 186.49718109 -73.31640625 185.26171875 C-73.33718735 184.02581497 -73.35796844 182.78991119 -73.37937927 181.51655579 C-73.43359931 178.24347874 -73.48387578 174.9703726 -73.53222656 171.69720459 C-73.5826157 168.3521174 -73.63828816 165.00712276 -73.69335938 161.66210938 C-73.80035943 155.10814229 -73.90215892 148.55410987 -74 142 C-77.91050437 141.31911854 -81.59002111 140.8636985 -85.5625 140.875 C-86.47128906 140.87242187 -87.38007813 140.86984375 -88.31640625 140.8671875 C-90.97412594 140.99871948 -93.40106307 141.45208218 -96 142 Z M4 211 C4 217.6 4 224.2 4 231 C10.6 231 17.2 231 24 231 C24 224.4 24 217.8 24 211 C17.4 211 10.8 211 4 211 Z " fill="#228BE5" transform="translate(357,50)"/>
<path d="M0 0 C5.92755094 5.05585227 8.06555351 10.25392796 9.125 17.8125 C9.71882779 28.52423966 9.75002643 39.23374833 4.4375 48.875 C-0.09954515 52.6763081 -4.64427479 54.15441206 -10.5625 53.75 C-14.68392105 53.06309649 -17.05699228 52.03308026 -19.875 48.8125 C-26.25789512 37.23674105 -26.75594108 23.1671548 -23.1875 10.5625 C-21.50889686 5.80050528 -19.98739128 2.76498605 -15.875 -0.1875 C-10.69501432 -1.91416189 -5.07750122 -2.09722877 0 0 Z " fill="#228BE4" transform="translate(128.875,210.1875)"/>
<path d="M0 0 C2.31 0 4.62 0 7 0 C7 0.33 7 0.66 7 1 C5.35 1 3.7 1 2 1 C2.06163072 8.48561958 2.13903088 15.97094183 2.23571491 23.4561882 C2.28014835 26.9331702 2.31946083 30.41004228 2.34643555 33.88720703 C2.3777954 37.89905038 2.43256921 41.91029532 2.48828125 45.921875 C2.49467117 47.15049255 2.5010611 48.37911011 2.50764465 49.6449585 C2.70724265 61.54690947 4.32373451 72.67279863 12.5625 81.71484375 C19.49328112 88.27662495 27.77392737 89.44142775 37 90 C37 90.33 37 90.66 37 91 C30.00591468 91.20982256 23.67158146 91.26582012 17 89 C16.505 88.01 16.505 88.01 16 87 C13.97536745 86.34786708 13.97536745 86.34786708 12 86 C12 85.34 12 84.68 12 84 C11.01 83.67 10.02 83.34 9 83 C7.46484375 80.6015625 7.46484375 80.6015625 5.9375 77.625 C4.38462506 74.62988752 2.87343289 71.81014934 1 69 C-0.59903054 61.24139518 -0.13046398 52.99251611 -0.09765625 45.1171875 C-0.0962413 43.82177032 -0.09482635 42.52635315 -0.09336853 41.19168091 C-0.08958811 37.78216549 -0.0797972 34.37269408 -0.06866455 30.9631958 C-0.05835308 27.47026159 -0.05385025 23.97732012 -0.04882812 20.484375 C-0.03816995 13.65623216 -0.02114874 6.8281182 0 0 Z M13 89 C14.32 89 15.64 89 17 89 C16.67 89.99 16.34 90.98 16 92 C15.01 92 14.02 92 13 92 C13 91.01 13 90.02 13 89 Z " fill="#4A96D8" transform="translate(259,191)"/>
<path d="M0 0 C0.66 0 1.32 0 2 0 C2.33 28.38 2.66 56.76 3 86 C-4.64763019 88.29428906 -8.51906968 89.3619805 -16 89 C-16 88.67 -16 88.34 -16 88 C-11.05 86.68 -6.1 85.36 -1 84 C-0.67 56.28 -0.34 28.56 0 0 Z " fill="#3687CC" transform="translate(331,192)"/>
<path d="M0 0 C-4.20840495 2.8056033 -8.63427049 3.68166304 -13.5 4.9375 C-14.52504639 5.20328857 -15.55009277 5.46907715 -16.60620117 5.74291992 C-25.98772908 8.10989574 -35.39939229 9.82324874 -45 11 C-45.72550049 11.09498779 -46.45100098 11.18997559 -47.19848633 11.2878418 C-55.13237121 12.21885468 -63.08572825 12.1975898 -71.0625 12.1875 C-71.79178711 12.18756042 -72.52107422 12.18762085 -73.27246094 12.18768311 C-95.92957958 12.16089428 -95.92957958 12.16089428 -105 10 C-105.33 9.34 -105.66 8.68 -106 8 C-102.04 8 -98.08 8 -94 8 C-94 8.66 -94 9.32 -94 10 C-88.36621045 9.9047941 -82.73276977 9.79838832 -77.09936523 9.68261719 C-75.19219397 9.64487992 -73.28496474 9.60994337 -71.37768555 9.578125 C-50.41103639 9.79773959 -50.41103639 9.79773959 -30 6 C-28.453125 5.7525 -28.453125 5.7525 -26.875 5.5 C-24.11169115 5.30352229 -24.11169115 5.30352229 -23 4 C-20.03543257 3.45892098 -17.05968749 3.03460937 -14.078125 2.59765625 C-0.56419375 -0.02624157 -0.56419375 -0.02624157 0 0 Z " fill="#4D94D3" transform="translate(302,439)"/>
<path d="M0 0 C1.2039337 3.75399798 1.09877617 7.33217412 1.0625 11.25 C1.05347656 12.51328125 1.04445313 13.7765625 1.03515625 15.078125 C1.02355469 16.04234375 1.01195312 17.0065625 1 18 C-0.32 17.34 -1.64 16.68 -3 16 C-3.33 16.66 -3.66 17.32 -4 18 C-3.34 18.33 -2.68 18.66 -2 19 C-1.6875 21.25 -1.6875 21.25 -2 24 C-3.2065625 24.8971875 -3.2065625 24.8971875 -4.4375 25.8125 C-7.41733867 27.87682104 -7.41733867 27.87682104 -7.625 31.9375 C-7.66882813 32.63746094 -7.71265625 33.33742187 -7.7578125 34.05859375 C-8.10020157 36.8032287 -9.58844361 38.64740602 -11 41 C-11.23928841 42.40884412 -11.42380305 43.82772582 -11.5625 45.25 C-11.706875 46.4875 -11.85125 47.725 -12 49 C-12.99 49.495 -12.99 49.495 -14 50 C-13.50745035 42.91793483 -12.28672291 36.33074723 -10.375 29.5 C-10.1157373 28.55817871 -9.85647461 27.61635742 -9.58935547 26.64599609 C-6.99976093 17.51717646 -3.65124383 8.7500222 0 0 Z " fill="#368FDB" transform="translate(29,142)"/>
<path d="M0 0 C0.66 1.32 1.32 2.64 2 4 C1.195625 4.45375 0.39125 4.9075 -0.4375 5.375 C-3.08856572 6.74725665 -3.08856572 6.74725665 -4 9 C-6.33333333 10 -8.66666667 11 -11 12 C-11.33 12.66 -11.66 13.32 -12 14 C-14.16467461 14.62669199 -16.35864524 15.15427374 -18.5625 15.625 C-19.76003906 15.88539063 -20.95757812 16.14578125 -22.19140625 16.4140625 C-23.11824219 16.60742188 -24.04507813 16.80078125 -25 17 C-25 17.66 -25 18.32 -25 19 C-28.63 19 -32.26 19 -36 19 C-36.33 18.34 -36.66 17.68 -37 17 C-39.57951874 16.30906104 -39.57951874 16.30906104 -42.5625 15.875 C-43.57441406 15.70742188 -44.58632812 15.53984375 -45.62890625 15.3671875 C-46.41136719 15.24601562 -47.19382812 15.12484375 -48 15 C-48 14.34 -48 13.68 -48 13 C-50.65228812 11.92474806 -53.28368454 10.90543849 -56 10 C-55.67 9.01 -55.34 8.02 -55 7 C-54.07380859 7.50660156 -54.07380859 7.50660156 -53.12890625 8.0234375 C-40.88353465 14.47229378 -30.49045027 15.31987921 -17.0859375 11.9765625 C-9.88065781 9.6964107 -5.07285491 5.45331903 0 0 Z " fill="#2B89DB" transform="translate(152,267)"/>
<path d="M0 0 C-1.3921875 0.680625 -1.3921875 0.680625 -2.8125 1.375 C-6.03921389 2.9421633 -6.03921389 2.9421633 -9 5 C-12.09921313 5.29759248 -15.17331139 5.37795497 -18.28515625 5.4609375 C-21.14427753 5.69694665 -21.14427753 5.69694665 -22.37109375 8.0390625 C-22.68240234 9.00972656 -22.68240234 9.00972656 -23 10 C-22.01 11.32 -21.02 12.64 -20 14 C-23.13349732 15.04449911 -23.98968256 14.93423645 -27 14 C-27 13.34 -27 12.68 -27 12 C-27.99 12 -28.98 12 -30 12 C-30 11.01 -30 10.02 -30 9 C-31.32 9 -32.64 9 -34 9 C-34 9.66 -34 10.32 -34 11 C-35.98 11 -37.96 11 -40 11 C-37.13754722 8.13754722 -33.64442421 7.35144725 -29.875 6.125 C-29.07690918 5.86323975 -28.27881836 5.60147949 -27.45654297 5.33178711 C-4.97522687 -1.91258722 -4.97522687 -1.91258722 0 0 Z " fill="#328EDB" transform="translate(190,16)"/>
<path d="M0 0 C4.76444724 3.02527785 9.00531195 6.41130768 13.25 10.125 C14.23734131 10.98714111 14.23734131 10.98714111 15.24462891 11.86669922 C37.9511944 31.85358319 37.9511944 31.85358319 41 41 C40.34 41 39.68 41 39 41 C39 40.34 39 39.68 39 39 C38.34 39 37.68 39 37 39 C35.65668346 37.00669158 34.32405988 35.00615134 33 33 C32.01 32.34 31.02 31.68 30 31 C30 30.34 30 29.68 30 29 C29.01 29 28.02 29 27 29 C27 27.68 27 26.36 27 25 C26.34 25 25.68 25 25 25 C25 24.34 25 23.68 25 23 C23.68 22.34 22.36 21.68 21 21 C21 20.34 21 19.68 21 19 C19.68 19 18.36 19 17 19 C17 17.68 17 16.36 17 15 C14.09926819 14.32198966 14.09926819 14.32198966 11 14 C10.34 14.66 9.68 15.32 9 16 C9 15.01 9 14.02 9 13 C8.48495014 9.70368087 7.59007768 8.11043366 5 6 C3.948125 5.5359375 3.948125 5.5359375 2.875 5.0625 C1 4 1 4 0.25 1.875 C0.1675 1.25625 0.085 0.6375 0 0 Z " fill="#5096D3" transform="translate(363,55)"/>
<path d="M0 0 C1.61455078 0.00483398 1.61455078 0.00483398 3.26171875 0.00976562 C4.38964844 0.01814453 5.51757812 0.02652344 6.6796875 0.03515625 C8.38318359 0.04192383 8.38318359 0.04192383 10.12109375 0.04882812 C12.93234388 0.0606401 15.7434898 0.07711118 18.5546875 0.09765625 C18.5546875 1.08765625 18.5546875 2.07765625 18.5546875 3.09765625 C19.885 3.00484375 19.885 3.00484375 21.2421875 2.91015625 C24.89953767 3.11717607 26.60245901 4.01373025 29.5546875 6.09765625 C26.72271338 7.51364331 25.30120953 6.61506308 22.3046875 5.72265625 C9.15753306 1.99791263 -4.45259244 1.35604022 -16.8828125 7.91015625 C-19.82266192 10.4197838 -22.04176607 13.07605503 -24.4453125 16.09765625 C-24.7753125 16.09765625 -25.1053125 16.09765625 -25.4453125 16.09765625 C-25.4453125 14.11765625 -25.4453125 12.13765625 -25.4453125 10.09765625 C-24.1253125 10.09765625 -22.8053125 10.09765625 -21.4453125 10.09765625 C-21.4453125 8.77765625 -21.4453125 7.45765625 -21.4453125 6.09765625 C-19.7953125 6.09765625 -18.1453125 6.09765625 -16.4453125 6.09765625 C-16.4453125 5.43765625 -16.4453125 4.77765625 -16.4453125 4.09765625 C-15.50558594 3.79021484 -15.50558594 3.79021484 -14.546875 3.4765625 C-13.72960937 3.20714844 -12.91234375 2.93773437 -12.0703125 2.66015625 C-11.25820312 2.39332031 -10.44609375 2.12648437 -9.609375 1.8515625 C-6.01254589 0.59851553 -3.90994741 -0.02057867 0 0 Z " fill="#418FD2" transform="translate(209.4453125,187.90234375)"/>
<path d="M0 0 C10.89 0 21.78 0 33 0 C31 2 31 2 29.0546875 2.1953125 C27.03645833 2.13020833 25.01822917 2.06510417 23 2 C23 2.99 23 3.98 23 5 C21.08574219 4.98259766 21.08574219 4.98259766 19.1328125 4.96484375 C17.46354313 4.95546583 15.79427217 4.94636563 14.125 4.9375 C13.28324219 4.92912109 12.44148438 4.92074219 11.57421875 4.91210938 C10.76855469 4.90888672 9.96289062 4.90566406 9.1328125 4.90234375 C8.38918457 4.89710693 7.64555664 4.89187012 6.87939453 4.88647461 C4.90867432 4.88213364 4.90867432 4.88213364 3 6 C0.875 5.0625 0.875 5.0625 -1 4 C-0.67 2.68 -0.34 1.36 0 0 Z " fill="#2B8CDD" transform="translate(281,281)"/>
<path d="M0 0 C2.375 0.6875 2.375 0.6875 5 2 C6.3125 4.625 6.3125 4.625 7 7 C8.98 7 10.96 7 13 7 C13 8.65 13 10.3 13 12 C16.00259517 12.33218192 16.00259517 12.33218192 17.6875 10.5 C18.120625 10.005 18.55375 9.51 19 9 C19.33 10.65 19.66 12.3 20 14 C19.01 14.495 19.01 14.495 18 15 C17.67 15.99 17.34 16.98 17 18 C18.32 18 19.64 18 21 18 C21 18.66 21 19.32 21 20 C21.99 20.33 22.98 20.66 24 21 C24.12375 21.804375 24.2475 22.60875 24.375 23.4375 C24.58125 24.283125 24.7875 25.12875 25 26 C25.66 26.33 26.32 26.66 27 27 C24 27 24 27 21.546875 24.875 C20.60602241 23.92507004 19.67419014 22.9661486 18.75 22 C18.26055908 21.49815186 17.77111816 20.99630371 17.2668457 20.47924805 C11.00562935 14.01376067 5.28951001 7.28518595 0 0 Z " fill="#2C8BDA" transform="translate(57,366)"/>
<path d="M0 0 C0.33 0.66 0.66 1.32 1 2 C-1.33294775 2.04241723 -3.66702567 2.04092937 -6 2 C-6.33 1.67 -6.66 1.34 -7 1 C-9.01311449 0.60430892 -11.03597208 0.25747809 -13.0625 -0.0625 C-14.71958984 -0.32740234 -14.71958984 -0.32740234 -16.41015625 -0.59765625 C-17.26480469 -0.73042969 -18.11945313 -0.86320313 -19 -1 C-19.26554688 -0.35546875 -19.53109375 0.2890625 -19.8046875 0.953125 C-20.19914063 1.62859375 -20.59359375 2.3040625 -21 3 C-24.125 3.75 -24.125 3.75 -27 4 C-26.67 5.98 -26.34 7.96 -26 10 C-26.66 10 -27.32 10 -28 10 C-29.1875 7.3125 -29.1875 7.3125 -30 4 C-28.82656381 1.13160041 -27.85945954 -0.4554859 -25.23046875 -2.12109375 C-17.5557355 -5.14528811 -7.40463853 -3.02853884 0 0 Z " fill="#2789DF" transform="translate(233,211)"/>
<path d="M0 0 C0.33 0 0.66 0 1 0 C1.4525882 23.43246407 0.6813598 46.11338749 -5 69 C-5.33 69 -5.66 69 -6 69 C-6.33 66.36 -6.66 63.72 -7 61 C-6.34 61 -5.68 61 -5 61 C-5.02320313 60.39671875 -5.04640625 59.7934375 -5.0703125 59.171875 C-5.08835937 58.37265625 -5.10640625 57.5734375 -5.125 56.75 C-5.14820313 55.96109375 -5.17140625 55.1721875 -5.1953125 54.359375 C-5 52 -5 52 -4.05859375 50.19921875 C-2.49601628 46.95297846 -2.28559475 43.60396939 -1.9375 40.0625 C-1.85516113 39.26287842 -1.77282227 38.46325684 -1.68798828 37.6394043 C-0.51279938 25.1346963 -0.31929177 12.54972423 0 0 Z " fill="#5497D2" transform="translate(450,216)"/>
<path d="M0 0 C4.95585866 4.34548636 7.82127015 9.46336592 11 15.1875 C11.50789063 16.08275391 12.01578125 16.97800781 12.5390625 17.90039062 C22 34.69961939 22 34.69961939 22 38 C21.01 38 20.02 38 19 38 C18.67 38.66 18.34 39.32 18 40 C17.34 40 16.68 40 16 40 C16 39.01 16 38.02 16 37 C16.66 37 17.32 37 18 37 C16.94849783 33.68372392 15.79865269 30.48366951 14.375 27.3125 C13 24 13 24 13 21 C12.01 21 11.02 21 10 21 C9.8453125 19.824375 9.8453125 19.824375 9.6875 18.625 C9.22404978 15.66954819 9.22404978 15.66954819 6 14 C5.3125 10.875 5.3125 10.875 5 8 C4.01 7.67 3.02 7.34 2 7 C0.8125 3.4375 0.8125 3.4375 0 0 Z " fill="#408FD5" transform="translate(410,104)"/>
<path d="M0 0 C0.66 0.33 1.32 0.66 2 1 C1.4740625 2.1446875 1.4740625 2.1446875 0.9375 3.3125 C-0.32360884 6.04759379 -0.32360884 6.04759379 1 9 C0.01 9 -0.98 9 -2 9 C-2 8.34 -2 7.68 -2 7 C-3.32 7 -4.64 7 -6 7 C-6 7.66 -6 8.32 -6 9 C-6.99 9.66 -7.98 10.32 -9 11 C-9.61875 11.78375 -10.2375 12.5675 -10.875 13.375 C-14.52576765 17.88477181 -18.6584018 20.74465854 -24 23 C-24.66 22.67 -25.32 22.34 -26 22 C-17.70536863 14.14592598 -9.07271916 6.93875119 0 0 Z " fill="#3C8ED6" transform="translate(102,52)"/>
<path d="M0 0 C2.21983919 3.32975879 3.38409772 6.67511315 4.625 10.4375 C4.85445313 11.10587891 5.08390625 11.77425781 5.3203125 12.46289062 C6.45040619 15.85653506 7 18.38113645 7 22 C5.35 22 3.7 22 2 22 C2 22.66 2 23.32 2 24 C1.34 24 0.68 24 0 24 C-0.66 21.69 -1.32 19.38 -2 17 C-1.34 16.67 -0.68 16.34 0 16 C0.66 16.33 1.32 16.66 2 17 C2 15.68 2 14.36 2 13 C1.34 13 0.68 13 0 13 C-0.19397476 11.02145742 -0.38001321 9.0421352 -0.5625 7.0625 C-0.66691406 5.96035156 -0.77132813 4.85820312 -0.87890625 3.72265625 C-0.91886719 2.82417969 -0.95882813 1.92570313 -1 1 C-0.67 0.67 -0.34 0.34 0 0 Z " fill="#328FDF" transform="translate(436,152)"/>
<path d="M0 0 C0.33 0 0.66 0 1 0 C3.29201917 11.9406805 3.66084999 26.65563032 -3.0625 37.25 C-5 39 -5 39 -7 39 C-6.70222656 38.43539062 -6.40445313 37.87078125 -6.09765625 37.2890625 C-5.00631204 35.01316318 -4.20486291 32.77752891 -3.4375 30.375 C-2.72279984 28.14572799 -2.04722531 26.09445062 -1 24 C-0.84693099 22.18828902 -0.75053339 20.3716206 -0.68359375 18.5546875 C-0.64169922 17.47832031 -0.59980469 16.40195313 -0.55664062 15.29296875 C-0.51732422 14.16503906 -0.47800781 13.03710938 -0.4375 11.875 C-0.37272461 10.17150391 -0.37272461 10.17150391 -0.30664062 8.43359375 C-0.2003396 5.62252232 -0.09830595 2.81136055 0 0 Z " fill="#4D95D2" transform="translate(136,222)"/>
<path d="M0 0 C0.33 1.32 0.66 2.64 1 4 C-6.26 4 -13.52 4 -21 4 C-20.67 3.01 -20.34 2.02 -20 1 C-13.37082428 -1.99891282 -6.99847936 -1.14260887 0 0 Z " fill="#328DD7" transform="translate(329,188)"/>
<path d="M0 0 C0.99 0 1.98 0 3 0 C2.855625 0.77601563 2.71125 1.55203125 2.5625 2.3515625 C0.12564173 16.53272383 0.96265098 29.07881698 4 43 C0.5347067 40.68980447 0.24641175 39.3313912 -0.61132812 35.38525391 C-1.32551825 31.00231576 -1.56761108 26.62042646 -1.75 22.1875 C-1.79310303 21.2186084 -1.83620605 20.2497168 -1.88061523 19.25146484 C-2.10827244 12.63103752 -1.85499071 6.40814972 0 0 Z " fill="#4590D2" transform="translate(81,216)"/>
<path d="M0 0 C1.65 0 3.3 0 5 0 C3.45695186 4.30851104 0.16590494 6.49661902 -3.375 9.125 C-4.24125 9.78822266 -4.24125 9.78822266 -5.125 10.46484375 C-7.96653522 12.61221397 -10.73067778 14.56665183 -14 16 C-14 12 -14 12 -12.6875 10.25 C-11 9 -11 9 -8 9 C-8 8.34 -8 7.68 -8 7 C-7.34 7 -6.68 7 -6 7 C-6 6.34 -6 5.68 -6 5 C-4.02 4.67 -2.04 4.34 0 4 C0 2.68 0 1.36 0 0 Z " fill="#3791DC" transform="translate(370,396)"/>
<path d="M0 0 C2.40865743 2.05444311 4.26138066 4.25865127 6.125 6.8125 C5.795 7.4725 5.465 8.1325 5.125 8.8125 C4.50625 8.008125 3.8875 7.20375 3.25 6.375 C1.38335959 3.77375481 1.38335959 3.77375481 -0.875 2.8125 C-0.875 2.1525 -0.875 1.4925 -0.875 0.8125 C-3.0212026 0.95279419 -5.16696218 1.09988164 -7.3125 1.25 C-8.50746094 1.33121094 -9.70242187 1.41242188 -10.93359375 1.49609375 C-13.76070244 1.48906114 -13.76070244 1.48906114 -14.875 2.8125 C-14.215 3.4725 -13.555 4.1325 -12.875 4.8125 C-13.6175 5.10125 -14.36 5.39 -15.125 5.6875 C-17.44239797 6.63552644 -19.65417115 7.66095911 -21.875 8.8125 C-20.56454637 4.88113911 -19.04291954 2.50043173 -15.875 -0.1875 C-10.69501432 -1.91416189 -5.07750122 -2.09722877 0 0 Z " fill="#428CCF" transform="translate(128.875,210.1875)"/>
<path d="M0 0 C6.99618612 1.26160733 14.0955602 2.86273409 20 7 C21.57724435 9.78270968 21.79122771 11.90985083 21 15 C18.5625 18 18.5625 18 16 20 C16.33 19.113125 16.66 18.22625 17 17.3125 C17.91222143 14.29076653 18.18330958 12.11626294 18 9 C15.03 8.01 12.06 7.02 9 6 C9 5.34 9 4.68 9 4 C6.69 3.67 4.38 3.34 2 3 C2 2.34 2 1.68 2 1 C1.34 0.67 0.68 0.34 0 0 Z " fill="#498FC9" transform="translate(198,241)"/>
<path d="M0 0 C6.18146064 -0.12276982 11.96868866 0.23852328 18.0625 1.25 C19.27836792 1.44589722 19.27836792 1.44589722 20.51879883 1.64575195 C28.4632729 2.98002711 36.23061826 4.88887144 44 7 C43.34 7.66 42.68 8.32 42 9 C38.9609375 8.7578125 38.9609375 8.7578125 35.375 8.125 C33.59222656 7.81949219 33.59222656 7.81949219 31.7734375 7.5078125 C30.40058594 7.25644531 30.40058594 7.25644531 29 7 C29 6.34 29 5.68 29 5 C25.66683783 4.51963783 22.33343987 4.04093096 19 3.5625 C17.59814453 3.36043945 17.59814453 3.36043945 16.16796875 3.15429688 C10.78421493 2.3825 5.39913487 1.65579115 0 1 C0 0.67 0 0.34 0 0 Z " fill="#4D94D2" transform="translate(248,12)"/>
<path d="M0 0 C0.66 1.32 1.32 2.64 2 4 C1.195625 4.45375 0.39125 4.9075 -0.4375 5.375 C-3.08856572 6.74725665 -3.08856572 6.74725665 -4 9 C-7.5 10.5 -7.5 10.5 -11 12 C-11.33 12.66 -11.66 13.32 -12 14 C-15.22477753 15.17600832 -18.34803656 15.10299956 -21.75 15.0625 C-22.73484375 15.05347656 -23.7196875 15.04445313 -24.734375 15.03515625 C-25.48203125 15.02355469 -26.2296875 15.01195312 -27 15 C-27 14.67 -27 14.34 -27 14 C-26.154375 13.84144531 -25.30875 13.68289063 -24.4375 13.51953125 C-13.75012366 11.32133225 -7.37606383 7.92926862 0 0 Z " fill="#4A93CF" transform="translate(152,267)"/>
<path d="M0 0 C-0.33 0.66 -0.66 1.32 -1 2 C-3.56064348 2.69033975 -6.02015533 3.23194167 -8.625 3.6875 C-9.75796509 3.889198 -9.75796509 3.889198 -10.91381836 4.0949707 C-18.42668393 5.29499128 -25.46494536 4.91034867 -33 4 C-29.45823536 1.63882358 -28.1658853 1.83977364 -24 2 C-16.85120034 2.1199463 -6.31795562 -2.10598521 0 0 Z " fill="#4396DD" transform="translate(225,279)"/>
<path d="M0 0 C-0.928125 0.45375 -1.85625 0.9075 -2.8125 1.375 C-6.03921389 2.9421633 -6.03921389 2.9421633 -9 5 C-10.99291992 5.31884766 -10.99291992 5.31884766 -13.23046875 5.4140625 C-14.03291016 5.45273437 -14.83535156 5.49140625 -15.66210938 5.53125 C-16.49548828 5.5621875 -17.32886719 5.593125 -18.1875 5.625 C-19.03248047 5.66367187 -19.87746094 5.70234375 -20.74804688 5.7421875 C-22.83167524 5.83636279 -24.91580753 5.91926675 -27 6 C-22.93016546 3.28677697 -18.77306805 2.48264111 -14.0625 1.3125 C-13.15564453 1.07466797 -12.24878906 0.83683594 -11.31445312 0.59179688 C-10.00057617 0.26211914 -10.00057617 0.26211914 -8.66015625 -0.07421875 C-7.86230713 -0.27619873 -7.06445801 -0.47817871 -6.24243164 -0.6862793 C-3.84650034 -1.02147491 -2.28224036 -0.7450949 0 0 Z " fill="#4592D6" transform="translate(190,16)"/>
<path d="M0 0 C0.33 0 0.66 0 1 0 C1.6490968 3.18684428 2.29367948 6.37458595 2.9375 9.5625 C3.11990234 10.45775391 3.30230469 11.35300781 3.49023438 12.27539062 C5.03040902 19.92025749 6.13695192 27.19374056 6 35 C5.5359375 34.0409375 5.5359375 34.0409375 5.0625 33.0625 C4.1654837 31.06389179 4.1654837 31.06389179 3 30 C2.92686433 27.46950598 2.90752473 24.96695163 2.9375 22.4375 C2.94201172 21.72658203 2.94652344 21.01566406 2.95117188 20.28320312 C2.96299136 18.52209987 2.98092737 16.76103964 3 15 C2.34 15 1.68 15 1 15 C0.15318867 9.91913204 -0.09038099 5.15171623 0 0 Z " fill="#4D95D3" transform="translate(444,177)"/>
<path d="M0 0 C4.5929708 3.52127761 5.11941917 7.57747597 6 13 C0.54545455 13.36363636 0.54545455 13.36363636 -1.875 11.75 C-3 10 -3 10 -3 6 C-1.68 6 -0.36 6 1 6 C0.67 4.02 0.34 2.04 0 0 Z " fill="#2D8DDF" transform="translate(406,98)"/>
<path d="M0 0 C1.485 0.99 1.485 0.99 3 2 C3 2.99 3 3.98 3 5 C3.66 5 4.32 5 5 5 C5.4125 6.010625 5.825 7.02125 6.25 8.0625 C7.88512605 11.89604911 9.87844214 15.4152988 12 19 C12.66 19 13.32 19 14 19 C15.66670026 22.52948291 16.13583456 24.28272326 15 28 C13.24443519 25.17008026 11.49660564 22.33545649 9.75 19.5 C9.25886719 18.70851563 8.76773438 17.91703125 8.26171875 17.1015625 C0 3.6625 0 3.6625 0 0 Z " fill="#4C92D1" transform="translate(33,326)"/>
<path d="M0 0 C0 0.99 0 1.98 0 3 C0.66 3.33 1.32 3.66 2 4 C2 4.66 2 5.32 2 6 C2.66 6 3.32 6 4 6 C4 7.65 4 9.3 4 11 C5.65 10.34 7.3 9.68 9 9 C8.67 11.97 8.34 14.94 8 18 C7.34 18 6.68 18 6 18 C5.56300781 17.03900391 5.56300781 17.03900391 5.1171875 16.05859375 C2.35675882 10.23391562 -0.59858165 5.70849405 -5 1 C-2 0 -2 0 0 0 Z " fill="#4499DE" transform="translate(151,197)"/>
<path d="M0 0 C0.33 0.99 0.66 1.98 1 3 C0.67 3.66 0.34 4.32 0 5 C0.66 5 1.32 5 2 5 C1.34 6.32 0.68 7.64 0 9 C0 8.01 0 7.02 0 6 C-0.66 6 -1.32 6 -2 6 C-2.66 8.97 -3.32 11.94 -4 15 C-3.01 14.67 -2.02 14.34 -1 14 C-1 14.66 -1 15.32 -1 16 C-2.175625 15.9071875 -2.175625 15.9071875 -3.375 15.8125 C-4.674375 15.9053125 -4.674375 15.9053125 -6 16 C-6.66 16.99 -7.32 17.98 -8 19 C-8.66 19 -9.32 19 -10 19 C-8.62394084 14.23448987 -6.53221934 10.2751447 -3.875 6.125 C-3.50246094 5.53203125 -3.12992188 4.9390625 -2.74609375 4.328125 C-1.83635 2.8818657 -0.91896202 1.44041954 0 0 Z " fill="#4091D8" transform="translate(46,111)"/>
<path d="M0 0 C0 0.66 0 1.32 0 2 C-6.6 2 -13.2 2 -20 2 C-19 0 -19 0 -16.625 -1.1875 C-11.38427516 -2.36214522 -4.91625858 -2.45812929 0 0 Z " fill="#2D87D4" transform="translate(280,189)"/>
<path d="M0 0 C0.66 0 1.32 0 2 0 C3.85776765 3.13498292 4.20140476 5.37471432 4 9 C4.66 9 5.32 9 6 9 C6.33 12.63 6.66 16.26 7 20 C5.68 20 4.36 20 3 20 C2.86722656 18.89140625 2.73445312 17.7828125 2.59765625 16.640625 C2.41940243 15.1770673 2.24100972 13.71352651 2.0625 12.25 C1.97548828 11.52039063 1.88847656 10.79078125 1.79882812 10.0390625 C1.37972591 6.62415558 0.882726 3.32396457 0 0 Z " fill="#368BD2" transform="translate(238,238)"/>
<path d="M0 0 C0 0.66 0 1.32 0 2 C0.99 2.33 1.98 2.66 3 3 C3.66 2.67 4.32 2.34 5 2 C5.33 2.99 5.66 3.98 6 5 C7.99665314 6.68538601 7.99665314 6.68538601 10 8 C5.27497299 7.36757331 1.09429803 6.08186437 -3.375 4.4375 C-4.01566406 4.20353516 -4.65632812 3.96957031 -5.31640625 3.72851562 C-6.8793161 3.15700381 -8.43990727 2.57915771 -10 2 C-10 1.67 -10 1.34 -10 1 C-3.375 0 -3.375 0 0 0 Z " fill="#3B91DE" transform="translate(160,434)"/>
<path d="M0 0 C0.33 0 0.66 0 1 0 C2.25 6.625 2.25 6.625 0 10 C-0.37783788 17.68270365 0.39000294 25.34235839 1 33 C-2.41770325 27.87344512 -2.18220825 22.70422333 -2.1875 16.6875 C-2.19974609 15.96626953 -2.21199219 15.24503906 -2.22460938 14.50195312 C-2.23845487 9.35604523 -1.41468981 4.9486185 0 0 Z " fill="#4B97D7" transform="translate(106,220)"/>
<path d="M0 0 C0 0.33 0 0.66 0 1 C-0.79664063 1.17015625 -1.59328125 1.3403125 -2.4140625 1.515625 C-11.79557892 3.66127596 -17.04256275 6.51065032 -23 14 C-23.33 14 -23.66 14 -24 14 C-24 12.02 -24 10.04 -24 8 C-22.68 8 -21.36 8 -20 8 C-20 6.68 -20 5.36 -20 4 C-18.35 4 -16.7 4 -15 4 C-15 3.34 -15 2.68 -15 2 C-9.77487721 0.53329887 -5.4185766 -0.22577402 0 0 Z " fill="#4F99D7" transform="translate(208,190)"/>
<path d="M0 0 C0.66 0.33 1.32 0.66 2 1 C0.60919892 2.58775549 -0.78788404 4.17000939 -2.1875 5.75 C-2.96480469 6.63171875 -3.74210937 7.5134375 -4.54296875 8.421875 C-6.88455246 10.87886268 -9.30158265 12.94862766 -12 15 C-11.67 13.68 -11.34 12.36 -11 11 C-10.34 11 -9.68 11 -9 11 C-9.33 10.01 -9.66 9.02 -10 8 C-9.67 7.01 -9.34 6.02 -9 5 C-7.02 5 -5.04 5 -3 5 C-3 3.68 -3 2.36 -3 1 C-2.01 0.67 -1.02 0.34 0 0 Z " fill="#4697DC" transform="translate(392,378)"/>
<path d="M0 0 C1.98 0 3.96 0 6 0 C6.33 0.66 6.66 1.32 7 2 C8.98 2 10.96 2 13 2 C13.28875 2.61875 13.5775 3.2375 13.875 3.875 C14.93720042 6.13325765 14.93720042 6.13325765 17 8 C14 9 14 9 10.64453125 7.34765625 C9.36110983 6.59622298 8.08393866 5.83403499 6.8125 5.0625 C5.83120117 4.48338867 5.83120117 4.48338867 4.83007812 3.89257812 C3.21464684 2.93746912 1.60659475 1.96989934 0 1 C0 0.67 0 0.34 0 0 Z " fill="#3D92DD" transform="translate(114,417)"/>
<path d="M0 0 C1.32 0 2.64 0 4 0 C4 1.32 4 2.64 4 4 C5.32 4 6.64 4 8 4 C8 4.66 8 5.32 8 6 C8.99 6.33 9.98 6.66 11 7 C11.12375 7.804375 11.2475 8.60875 11.375 9.4375 C11.58125 10.283125 11.7875 11.12875 12 12 C12.66 12.33 13.32 12.66 14 13 C11 13 11 13 8.30078125 10.6640625 C7.29685338 9.65880492 6.3010225 8.64541032 5.3125 7.625 C4.80138672 7.11710937 4.29027344 6.60921875 3.76367188 6.0859375 C0 2.26699141 0 2.26699141 0 0 Z " fill="#4D98D6" transform="translate(70,380)"/>
<path d="M0 0 C0.33 0 0.66 0 1 0 C1.495 6.93 1.495 6.93 2 14 C-4.69762919 16.26398733 -9.94304359 17.34146563 -17 17 C-17 16.67 -17 16.34 -17 16 C-11.39 14.68 -5.78 13.36 0 12 C0 8.04 0 4.08 0 0 Z " fill="#3E8ED3" transform="translate(332,264)"/>
<path d="M0 0 C0.66 0 1.32 0 2 0 C4.56943546 8.48831358 5.38558031 16.14593366 5 25 C4.34 25.33 3.68 25.66 3 26 C2.91697632 25.13834229 2.91697632 25.13834229 2.83227539 24.25927734 C2.5778124 21.63097381 2.32018189 19.00298982 2.0625 16.375 C1.93198242 15.01955078 1.93198242 15.01955078 1.79882812 13.63671875 C1.34748614 9.05643346 0.8352958 4.5301628 0 0 Z " fill="#408DD1" transform="translate(158,216)"/>
<path d="M0 0 C1.07765625 0.01804688 2.1553125 0.03609375 3.265625 0.0546875 C4.49539062 0.08949219 4.49539062 0.08949219 5.75 0.125 C5.75 0.455 5.75 0.785 5.75 1.125 C4.48542969 1.16367188 4.48542969 1.16367188 3.1953125 1.203125 C2.09960938 1.25984375 1.00390625 1.3165625 -0.125 1.375 C-1.21554688 1.42140625 -2.30609375 1.4678125 -3.4296875 1.515625 C-4.82574219 1.81726563 -4.82574219 1.81726563 -6.25 2.125 C-7.56416522 4.04428466 -7.56416522 4.04428466 -8.25 6.125 C-9.24 6.62 -9.24 6.62 -10.25 7.125 C-9.92 9.105 -9.59 11.085 -9.25 13.125 C-9.91 13.125 -10.57 13.125 -11.25 13.125 C-12.4375 10.4375 -12.4375 10.4375 -13.25 7.125 C-12.08538111 4.27815383 -11.10413449 2.68540498 -8.5234375 0.9921875 C-5.57990419 -0.13060356 -3.14092927 -0.06828107 0 0 Z " fill="#4991D3" transform="translate(216.25,207.875)"/>
<path d="M0 0 C4.67105792 1.55701931 8.08705685 4.08447373 12 7 C8.87819599 7.96661363 6.47916205 7.98988909 3.25 7.5625 C2.05117188 7.40974609 2.05117188 7.40974609 0.828125 7.25390625 C0.22484375 7.17011719 -0.3784375 7.08632813 -1 7 C-0.34 6.67 0.32 6.34 1 6 C0.67 4.02 0.34 2.04 0 0 Z " fill="#2E8DDF" transform="translate(338,39)"/>
<path d="M0 0 C0.66 0.33 1.32 0.66 2 1 C0.90233791 3.58627232 -0.20280384 6.16889586 -1.3125 8.75 C-1.7755957 9.84441406 -1.7755957 9.84441406 -2.24804688 10.9609375 C-3.83948215 14.64636655 -5.36372111 17.91758161 -8 21 C-7.88541307 19.56163249 -7.75790884 18.12429034 -7.625 16.6875 C-7.55539062 15.88699219 -7.48578125 15.08648437 -7.4140625 14.26171875 C-7 12 -7 12 -5 9 C-4.34 9 -3.68 9 -3 9 C-3 7.68 -3 6.36 -3 5 C-2.34 5 -1.68 5 -1 5 C-0.67 3.35 -0.34 1.7 0 0 Z " fill="#4391D4" transform="translate(434,311)"/>
<path d="M0 0 C5.54110713 3.40991208 10.20968493 7.61420043 15 12 C14.38125 12.28875 13.7625 12.5775 13.125 12.875 C10.86674235 13.93720042 10.86674235 13.93720042 9 16 C9 15.01 9 14.02 9 13 C8.48495014 9.70368087 7.59007768 8.11043366 5 6 C3.948125 5.5359375 3.948125 5.5359375 2.875 5.0625 C1 4 1 4 0.25 1.875 C0.1675 1.25625 0.085 0.6375 0 0 Z " fill="#3D91D8" transform="translate(363,55)"/>
<path d="M0 0 C0 0.66 0 1.32 0 2 C-0.55429688 2.25394531 -1.10859375 2.50789063 -1.6796875 2.76953125 C-2.40414062 3.11371094 -3.12859375 3.45789062 -3.875 3.8125 C-4.59429687 4.14894531 -5.31359375 4.48539063 -6.0546875 4.83203125 C-8.30542806 5.99467097 -8.30542806 5.99467097 -10 9 C-13.125 10.1875 -13.125 10.1875 -16 11 C-16 11.99 -16 12.98 -16 14 C-17.98 14 -19.96 14 -22 14 C-18.17753144 9.83742785 -14.18068431 7.02530676 -9.3125 4.1875 C-8.63638672 3.78080078 -7.96027344 3.37410156 -7.26367188 2.95507812 C-2.27232143 0 -2.27232143 0 0 0 Z " fill="#4993D0" transform="translate(126,38)"/>
<path d="M0 0 C6.27 0 12.54 0 19 0 C19 0.66 19 1.32 19 2 C9.595 2.495 9.595 2.495 0 3 C0 2.01 0 1.02 0 0 Z " fill="#3885C9" transform="translate(362,281)"/>
<path d="M0 0 C0 0.99 0 1.98 0 3 C-0.99 3 -1.98 3 -3 3 C-3.33 3.99 -3.66 4.98 -4 6 C-5.9375 6.625 -5.9375 6.625 -8 7 C-8.99 7.495 -8.99 7.495 -10 8 C-11.99960012 8.039992 -14.00047242 8.04346799 -16 8 C-13.10414095 5.70351643 -10.1827969 3.95652443 -6.875 2.3125 C-5.57175781 1.65701172 -5.57175781 1.65701172 -4.2421875 0.98828125 C-2 0 -2 0 0 0 Z " fill="#3A90D9" transform="translate(142,30)"/>
<path d="M0 0 C0 0.99 0 1.98 0 3 C2.475 3.495 2.475 3.495 5 4 C5 4.66 5 5.32 5 6 C4.26136719 5.79503906 3.52273437 5.59007812 2.76171875 5.37890625 C-4.17327404 3.53721185 -10.83749337 2.40888325 -18 2 C-18 1.67 -18 1.34 -18 1 C-15.93769732 0.8309093 -13.8751477 0.66482867 -11.8125 0.5 C-10.08966797 0.36078125 -10.08966797 0.36078125 -8.33203125 0.21875 C-5.53927574 0.0354038 -2.79680188 -0.04213637 0 0 Z " fill="#3F8CCE" transform="translate(135,188)"/>
<path d="M0 0 C1.01126953 0.23009766 1.01126953 0.23009766 2.04296875 0.46484375 C5.46877952 1.08483857 8.83893447 1.3352574 12.3125 1.5625 C13.56675781 1.64628906 14.82101563 1.73007812 16.11328125 1.81640625 C17.54220703 1.90728516 17.54220703 1.90728516 19 2 C16.10891102 4.89108898 12.92392702 4.94343889 9 5 C5.125 4.25 5.125 4.25 2 3 C1.34 2.01 0.68 1.02 0 0 Z " fill="#4B95D4" transform="translate(110,259)"/>
<path d="M0 0 C0.99 0 1.98 0 3 0 C2.67 1.093125 2.34 2.18625 2 3.3125 C0.22485014 10.40050972 0.46051517 17.87988264 2 25 C1.34 25 0.68 25 0 25 C-0.90375261 22.28874217 -1.12840471 20.69619541 -1.1328125 17.91015625 C-1.13410156 17.12576172 -1.13539063 16.34136719 -1.13671875 15.53320312 C-1.13285156 14.71787109 -1.12898437 13.90253906 -1.125 13.0625 C-1.12886719 12.25103516 -1.13273438 11.43957031 -1.13671875 10.60351562 C-1.13542969 9.81783203 -1.13414062 9.03214844 -1.1328125 8.22265625 C-1.13168457 7.50859619 -1.13055664 6.79453613 -1.12939453 6.05883789 C-0.99573643 3.93216104 -0.57960342 2.04645477 0 0 Z " fill="#4991CF" transform="translate(181,204)"/>
<path d="M0 0 C0.33 0 0.66 0 1 0 C1.05447047 1.41623216 1.09300508 2.83308191 1.125 4.25 C1.14820313 5.03890625 1.17140625 5.8278125 1.1953125 6.640625 C0.98015746 9.23969788 0.19315561 10.70932339 -1 13 C-1.37321217 15.09434213 -1.37321217 15.09434213 -1.5 17.1875 C-1.665 18.445625 -1.83 19.70375 -2 21 C-2.66 21.33 -3.32 21.66 -4 22 C-3.51298949 14.40935336 -2.00236413 7.32940833 0 0 Z " fill="#4891D0" transform="translate(19,170)"/>
<path d="M0 0 C6.88108028 2.62066674 13.46532335 5.60752957 20 9 C20 9.33 20 9.66 20 10 C15.55129785 10.39253254 12.85756507 9.15305957 9 7 C9 6.34 9 5.68 9 5 C6.03 4.01 3.06 3.02 0 2 C0 1.34 0 0.68 0 0 Z " fill="#4892D0" transform="translate(316,28)"/>
<path d="M0 0 C4.44870215 -0.39253254 7.14243493 0.84694043 11 3 C11.33 2.01 11.66 1.02 12 0 C12.66 0 13.32 0 14 0 C13.814375 0.598125 13.62875 1.19625 13.4375 1.8125 C12.77906313 4.16408762 12.77906313 4.16408762 14 7 C9.0276578 5.50829734 4.58154261 3.39542583 0 1 C0 0.67 0 0.34 0 0 Z " fill="#4091D5" transform="translate(130,426)"/>
<path d="M0 0 C0.66 0 1.32 0 2 0 C2.433125 1.2065625 2.433125 1.2065625 2.875 2.4375 C3.73262568 5.1326468 3.73262568 5.1326468 6 6 C6.6328125 8.72265625 6.6328125 8.72265625 7.125 12.0625 C7.29257812 13.16722656 7.46015625 14.27195312 7.6328125 15.41015625 C7.75398438 16.26480469 7.87515625 17.11945313 8 18 C5.39667844 14.83936913 3.85961424 11.6568348 2.3125 7.875 C1.87550781 6.82054687 1.43851563 5.76609375 0.98828125 4.6796875 C0 2 0 2 0 0 Z " fill="#4B95D4" transform="translate(25,308)"/>
<path d="M0 0 C0.68964844 0.33773438 1.37929687 0.67546875 2.08984375 1.0234375 C8.04911885 3.85184516 13.50792203 5.82929742 20 7 C20 7.33 20 7.66 20 8 C16.04 8 12.08 8 8 8 C8 7.34 8 6.68 8 6 C5.34771188 4.92474806 2.71631546 3.90543849 0 3 C0 2.01 0 1.02 0 0 Z " fill="#4D96D3" transform="translate(96,274)"/>
<path d="M0 0 C0.99 0 1.98 0 3 0 C3.33868777 2.20751848 3.67071689 4.41605911 4 6.625 C4.185625 7.85476563 4.37125 9.08453125 4.5625 10.3515625 C4.95402516 13.6166027 5.08080924 16.71712451 5 20 C2.73155961 16.59733941 2.19810007 13.9907882 1.375 10 C0.98441406 8.14375 0.98441406 8.14375 0.5859375 6.25 C0 3 0 3 0 0 Z " fill="#4C95D4" transform="translate(14,268)"/>
<path d="M0 0 C4.56023276 0.55275549 8.39324945 2.17409235 12 5 C13.4375 7.75 13.4375 7.75 14 10 C9.07195074 7.28454429 4.49344636 4.39301052 0 1 C0 0.67 0 0.34 0 0 Z " fill="#4A95D5" transform="translate(98,406)"/>
<path d="M0 0 C0 4.02450677 -1.1034499 6.45977315 -3 10 C-6.0625 12 -6.0625 12 -9 13 C-9.66 12.67 -10.32 12.34 -11 12 C-10.04882866 10.8274869 -9.08882991 9.66212985 -8.125 8.5 C-7.32449219 7.52546875 -7.32449219 7.52546875 -6.5078125 6.53125 C-6.01023437 6.0259375 -5.51265625 5.520625 -5 5 C-4.34 5 -3.68 5 -3 5 C-2.690625 4.360625 -2.38125 3.72125 -2.0625 3.0625 C-1 1 -1 1 0 0 Z " fill="#4692D3" transform="translate(75,75)"/>
<path d="M0 0 C10.83288923 2.21850019 10.83288923 2.21850019 14 4 C14.8125 6.125 14.8125 6.125 15 8 C13.02 7.34 11.04 6.68 9 6 C9 5.34 9 4.68 9 4 C6.69 3.67 4.38 3.34 2 3 C2 2.34 2 1.68 2 1 C1.34 0.67 0.68 0.34 0 0 Z " fill="#4894D7" transform="translate(198,241)"/>
<path d="M0 0 C0 0.99 0 1.98 0 3 C1.65 3.33 3.3 3.66 5 4 C4.67 4.66 4.34 5.32 4 6 C2.20620902 5.55005243 0.41501072 5.08975857 -1.375 4.625 C-2.37273437 4.36976563 -3.37046875 4.11453125 -4.3984375 3.8515625 C-7 3 -7 3 -9 1 C-2.25 -1.125 -2.25 -1.125 0 0 Z " fill="#3F90D5" transform="translate(216,220)"/>
<path d="M0 0 C3.96 0 7.92 0 12 0 C12 0.66 12 1.32 12 2 C13.32 2.33 14.64 2.66 16 3 C13.51979503 2.88658509 11.04155031 2.75985314 8.5625 2.625 C7.85544922 2.5940625 7.14839844 2.563125 6.41992188 2.53125 C4.60760812 2.42719371 2.80182012 2.22080108 1 2 C0.67 1.34 0.34 0.68 0 0 Z " fill="#4690D4" transform="translate(196,447)"/>
<path d="M0 0 C-1.25805377 4.50802601 -2.90407165 7.4912812 -6 11 C-6.36601307 3.5577342 -6.36601307 3.5577342 -4.6875 1 C-3 0 -3 0 0 0 Z " fill="#3990DC" transform="translate(426,332)"/>
<path d="M0 0 C1 2 1 2 0.00390625 5.2578125 C-0.46889984 6.5497052 -0.94971969 7.83868638 -1.4375 9.125 C-1.68048828 9.78371094 -1.92347656 10.44242187 -2.17382812 11.12109375 C-2.77578321 12.74991338 -3.38702412 14.37529575 -4 16 C-4.33 16 -4.66 16 -5 16 C-4.00712589 4.00712589 -4.00712589 4.00712589 0 0 Z " fill="#4F96D8" transform="translate(441,294)"/>
<path d="M0 0 C3.3 0.33 6.6 0.66 10 1 C6.11874072 3.58750619 3.98860285 4.18697419 -0.625 4.5625 C-1.62789063 4.64628906 -2.63078125 4.73007812 -3.6640625 4.81640625 C-4.43492187 4.87699219 -5.20578125 4.93757813 -6 5 C-5.67 4.34 -5.34 3.68 -5 3 C-1.9375 2.375 -1.9375 2.375 1 2 C0.67 1.34 0.34 0.68 0 0 Z " fill="#378FD9" transform="translate(300,435)"/>
<path d="M0 0 C0.66 0.99 1.32 1.98 2 3 C1.00200236 6.99199058 -0.55799862 8.82006579 -4 11 C-4 8.69 -4 6.38 -4 4 C-3.67 4.66 -3.34 5.32 -3 6 C-2.34 6 -1.68 6 -1 6 C-1.020625 5.195625 -1.04125 4.39125 -1.0625 3.5625 C-1 1 -1 1 0 0 Z " fill="#3C91DA" transform="translate(413,348)"/>
<path d="M0 0 C1.32 0.33 2.64 0.66 4 1 C4.33 4.96 4.66 8.92 5 13 C3.09610151 10.14415227 2.30537823 8.0688238 1.375 4.8125 C0.98441406 3.46091797 0.98441406 3.46091797 0.5859375 2.08203125 C0.39257812 1.39496094 0.19921875 0.70789063 0 0 Z " fill="#4895D8" transform="translate(20,294)"/>
<path d="M0 0 C0.33 0.66 0.66 1.32 1 2 C0.0625 4.625 0.0625 4.625 -1 7 C-3.64 7 -6.28 7 -9 7 C-6.03716687 4.61327331 -3.05729491 2.2646629 0 0 Z " fill="#4593D4" transform="translate(233,271)"/>
<path d="M0 0 C6.27 0.66 12.54 1.32 19 2 C19 2.33 19 2.66 19 3 C12.73 3 6.46 3 0 3 C0 2.01 0 1.02 0 0 Z " fill="#3D84C2" transform="translate(362,258)"/>
<path d="M0 0 C-0.33 0.66 -0.66 1.32 -1 2 C-3.72265625 2.6328125 -3.72265625 2.6328125 -7.0625 3.125 C-8.16722656 3.29257812 -9.27195313 3.46015625 -10.41015625 3.6328125 C-11.69212891 3.81457031 -11.69212891 3.81457031 -13 4 C-13 3.34 -13 2.68 -13 2 C-11.39935157 1.46845258 -9.79431126 0.95011647 -8.1875 0.4375 C-7.29417969 0.14746094 -6.40085938 -0.14257812 -5.48046875 -0.44140625 C-3 -1 -3 -1 0 0 Z " fill="#418FD2" transform="translate(225,279)"/>
<path d="M0 0 C3.26008643 3.16952847 6.22237877 6.39937989 9 10 C5 10 5 10 2.8125 8.375 C0.66307231 5.55850854 0.31720699 3.48927692 0 0 Z " fill="#4896D7" transform="translate(87,264)"/>
<path d="M0 0 C0.99 0.33 1.98 0.66 3 1 C2.21258141 2.46063143 1.4199095 3.91843173 0.625 5.375 C0.18414062 6.18710938 -0.25671875 6.99921875 -0.7109375 7.8359375 C-2 10 -2 10 -4 12 C-3.71788123 10.3733152 -3.42397625 8.74867104 -3.125 7.125 C-2.96257812 6.22007812 -2.80015625 5.31515625 -2.6328125 4.3828125 C-2 2 -2 2 0 0 Z " fill="#4A94D5" transform="translate(88,203)"/>
<path d="M0 0 C1.258125 -0.04125 2.51625 -0.0825 3.8125 -0.125 C4.52019531 -0.14820312 5.22789062 -0.17140625 5.95703125 -0.1953125 C8 0 8 0 11 2 C9.10114904 3.89885096 6.42752097 3.12367506 3.91015625 3.1328125 C2 3 2 3 0 2 C0 1.34 0 0.68 0 0 Z " fill="#3690DB" transform="translate(288,20)"/>
<path d="M0 0 C1.65 0 3.3 0 5 0 C3.54744301 3.82946843 1.57104439 5.12050295 -2 7 C-2.33 6.01 -2.66 5.02 -3 4 C-2.01 4 -1.02 4 0 4 C0 2.68 0 1.36 0 0 Z " fill="#4290D7" transform="translate(370,396)"/>
<path d="M0 0 C0.99 0.66 1.98 1.32 3 2 C2.02471263 3.33617352 1.04466681 4.6688751 0.0625 6 C-0.48277344 6.7425 -1.02804687 7.485 -1.58984375 8.25 C-2.05519531 8.8275 -2.52054687 9.405 -3 10 C-3.33 10 -3.66 10 -4 10 C-4 8.35 -4 6.7 -4 5 C-3.01 5 -2.02 5 -1 5 C-0.67 3.35 -0.34 1.7 0 0 Z " fill="#4095DC" transform="translate(406,359)"/>
<path d="M0 0 C0.99 0.33 1.98 0.66 3 1 C3 1.66 3 2.32 3 3 C4.32 2.34 5.64 1.68 7 1 C7 3.97 7 6.94 7 10 C3.66442368 7.0094833 1.84916079 4.06815373 0 0 Z " fill="#4592D8" transform="translate(49,354)"/>
<path d="M0 0 C-0.33 2.97 -0.66 5.94 -1 9 C-1.66 9 -2.32 9 -3 9 C-3.66 6.69 -4.32 4.38 -5 2 C-2 0 -2 0 0 0 Z " fill="#368ED5" transform="translate(160,206)"/>
<path d="M0 0 C1.125 3.75 1.125 3.75 0 6 C0.66 6 1.32 6 2 6 C2 6.66 2 7.32 2 8 C-0.31 8 -2.62 8 -5 8 C-3.38731308 5.28775382 -1.75098126 2.62647188 0 0 Z " fill="#408FD9" transform="translate(58,94)"/>
<path d="M0 0 C1.65 0 3.3 0 5 0 C2.51047079 2.66735273 0.36591866 4.55746343 -3 6 C-3 5.01 -3 4.02 -3 3 C-3.99 2.67 -4.98 2.34 -6 2 C-4.35 2 -2.7 2 -1 2 C-0.67 1.34 -0.34 0.68 0 0 Z " fill="#3B92DC" transform="translate(350,412)"/>
<path d="M0 0 C7.42857143 -0.28571429 7.42857143 -0.28571429 11 2 C10 3 10 3 7.93359375 3.09765625 C7.10988281 3.08605469 6.28617187 3.07445312 5.4375 3.0625 C4.61121094 3.05347656 3.78492187 3.04445313 2.93359375 3.03515625 C2.29550781 3.02355469 1.65742187 3.01195312 1 3 C0.67 2.01 0.34 1.02 0 0 Z " fill="#198DEC" transform="translate(114,258)"/>
<path d="M0 0 C3.63 0.33 7.26 0.66 11 1 C11.33 2.32 11.66 3.64 12 5 C10.56068883 4.54738642 9.12361001 4.08767021 7.6875 3.625 C6.88699219 3.36976563 6.08648437 3.11453125 5.26171875 2.8515625 C3 2 3 2 0 0 Z " fill="#5098D3" transform="translate(220,226)"/>
<path d="M0 0 C0.66 0 1.32 0 2 0 C1.91621094 0.62648438 1.83242187 1.25296875 1.74609375 1.8984375 C1.59333984 3.12433594 1.59333984 3.12433594 1.4375 4.375 C1.33308594 5.18710937 1.22867188 5.99921875 1.12109375 6.8359375 C0.81762672 9.04899186 0.81762672 9.04899186 2 11 C0.68 10.34 -0.64 9.68 -2 9 C-1.34 6.03 -0.68 3.06 0 0 Z " fill="#4E98D6" transform="translate(179,267)"/>
<path d="M0 0 C3.96 1.98 7.92 3.96 12 6 C12 6.33 12 6.66 12 7 C10.02 7 8.04 7 6 7 C6 6.34 6 5.68 6 5 C4.02 4.34 2.04 3.68 0 3 C0 2.01 0 1.02 0 0 Z " fill="#5296CF" transform="translate(186,234)"/>
<path d="M0 0 C0.33 0.99 0.66 1.98 1 3 C0.34 3 -0.32 3 -1 3 C-1 3.66 -1 4.32 -1 5 C-1.99 5.33 -2.98 5.66 -4 6 C-4.33 6.66 -4.66 7.32 -5 8 C-6.32 7.67 -7.64 7.34 -9 7 C-6.03 4.69 -3.06 2.38 0 0 Z " fill="#4B92CF" transform="translate(97,56)"/>
<path d="M0 0 C3.86107457 2.57404971 3.94319692 4.61020259 5 9 C4.34 9 3.68 9 3 9 C3 8.34 3 7.68 3 7 C2.34 7 1.68 7 1 7 C1 6.01 1 5.02 1 4 C0.34 4 -0.32 4 -1 4 C-0.67 2.68 -0.34 1.36 0 0 Z " fill="#1A8EEC" transform="translate(129,215)"/>
<path d="M0 0 C1.48117801 0.28127421 2.95993249 0.57533732 4.4375 0.875 C5.67306641 1.11863281 5.67306641 1.11863281 6.93359375 1.3671875 C7.61550781 1.57601562 8.29742187 1.78484375 9 2 C9.33 2.66 9.66 3.32 10 4 C3.375 4.25 3.375 4.25 0 2 C0 1.34 0 0.68 0 0 Z " fill="#4B94D3" transform="translate(224,209)"/>
<path d="M0 0 C0.33 0 0.66 0 1 0 C1 3.3 1 6.6 1 10 C-0.98 10.99 -0.98 10.99 -3 12 C-2.01 8.04 -1.02 4.08 0 0 Z " fill="#4D91D1" transform="translate(237,200)"/>
<path d="M0 0 C-1.33333333 2.66666667 -2.66666667 5.33333333 -4 8 C-4.66 7.67 -5.32 7.34 -6 7 C-6 5.68 -6 4.36 -6 3 C-2.78571429 0 -2.78571429 0 0 0 Z " fill="#1B8DED" transform="translate(89,201)"/>
<path d="M0 0 C0.66 0.99 1.32 1.98 2 3 C-0.0140476 6.0210714 -1.63279613 7.60667426 -5 9 C-3.7508258 5.54074837 -2.32472205 2.85306797 0 0 Z " fill="#4995D7" transform="translate(52,102)"/>
<path d="M0 0 C1.98 0 3.96 0 6 0 C6.33 0.66 6.66 1.32 7 2 C6.67 2.66 6.34 3.32 6 4 C4.68 4 3.36 4 2 4 C2 3.34 2 2.68 2 2 C1.34 2 0.68 2 0 2 C0 1.34 0 0.68 0 0 Z " fill="#2A89DD" transform="translate(163,434)"/>
<path d="M0 0 C0.66 1.32 1.32 2.64 2 4 C-0.3125 5.5625 -0.3125 5.5625 -3 7 C-3.99 6.67 -4.98 6.34 -6 6 C-4.02 4.02 -2.04 2.04 0 0 Z " fill="#4D95DE" transform="translate(152,267)"/>
<path d="M0 0 C0.33 0 0.66 0 1 0 C1 2.97 1 5.94 1 9 C0.34 9 -0.32 9 -1 9 C-1.33 9.99 -1.66 10.98 -2 12 C-3.40907283 9.18185434 -2.50872691 7.82722796 -1.5625 4.875 C-1.27503906 3.96492187 -0.98757812 3.05484375 -0.69140625 2.1171875 C-0.46324219 1.41851562 -0.23507813 0.71984375 0 0 Z " fill="#4891D1" transform="translate(160,247)"/>
<path d="M0 0 C0.33 0 0.66 0 1 0 C2.09644404 5.94457613 2.41029848 9.67993436 -1 15 C-2.37217815 11.29511898 -1.43993222 9.5574796 0 6 C0.16757757 2.79129767 0.16757757 2.79129767 0 0 Z " fill="#2688DA" transform="translate(107,219)"/>
<path d="M0 0 C6.42857143 4.14285714 6.42857143 4.14285714 9 7 C8.67 7.66 8.34 8.32 8 9 C7.5875 8.54625 7.175 8.0925 6.75 7.625 C5.08048988 5.89725289 5.08048988 5.89725289 2.875 5.0625 C1 4 1 4 0.25 1.875 C0.1675 1.25625 0.085 0.6375 0 0 Z " fill="#4C91D4" transform="translate(363,55)"/>
<path d="M0 0 C6.875 3.75 6.875 3.75 8 6 C6.02 6 4.04 6 2 6 C1.34 4.02 0.68 2.04 0 0 Z " fill="#418ED6" transform="translate(342,41)"/>
<path d="M0 0 C2.56687367 3.8503105 1.83288724 5.58569763 1 10 C-1 8 -1 8 -1.1875 4.4375 C-1 1 -1 1 0 0 Z " fill="#1C8DEE" transform="translate(178,205)"/>
<path d="M0 0 C0.66 0 1.32 0 2 0 C2 1.65 2 3.3 2 5 C1.34 5 0.68 5 0 5 C-0.33 5.99 -0.66 6.98 -1 8 C-1.66 7.67 -2.32 7.34 -3 7 C-2.01 4.69 -1.02 2.38 0 0 Z " fill="#1A8EEE" transform="translate(158,200)"/>
<path d="M0 0 C-1 3 -1 3 -3 4 C-4.99960012 4.039992 -7.00047242 4.04346799 -9 4 C-3.7826087 0 -3.7826087 0 0 0 Z " fill="#428DCD" transform="translate(135,34)"/>
<path d="M0 0 C0.33 0 0.66 0 1 0 C1.33 4.62 1.66 9.24 2 14 C1.01 14 0.02 14 -1 14 C-0.67 9.38 -0.34 4.76 0 0 Z " fill="#2E87D5" transform="translate(382,268)"/>
<path d="M0 0 C1.06126775 4.24507101 1.08878929 5.31975221 -1 9 C-2.32 9.33 -3.64 9.66 -5 10 C-3.35 6.7 -1.7 3.4 0 0 Z " fill="#4091D2" transform="translate(239,261)"/>
<path d="M0 0 C1.65 0 3.3 0 5 0 C5 0.66 5 1.32 5 2 C5.66 2.33 6.32 2.66 7 3 C4.36 3 1.72 3 -1 3 C-0.67 2.01 -0.34 1.02 0 0 Z " fill="#1B8EEF" transform="translate(119,211)"/>
<path d="M0 0 C2.64 0 5.28 0 8 0 C4.77484237 1.73662334 1.48670834 2.8905928 -2 4 C-2 3.34 -2 2.68 -2 2 C-1.34 2 -0.68 2 0 2 C0 1.34 0 0.68 0 0 Z " fill="#4D96D3" transform="translate(102,191)"/>
<path d="M0 0 C3.65316671 1.24976756 4.78065836 1.67098753 7 5 C6.67 5.99 6.34 6.98 6 8 C4.02 5.36 2.04 2.72 0 0 Z " fill="#5898D7" transform="translate(57,366)"/>
<path d="M0 0 C2.12508244 3.18762365 2.5020163 5.26512223 3 9 C0.9375 6.75 0.9375 6.75 -1 4 C-0.75 1.6875 -0.75 1.6875 0 0 Z " fill="#388DD7" transform="translate(46,345)"/>
<path d="M0 0 C2.475 0.99 2.475 0.99 5 2 C4.67 3.32 4.34 4.64 4 6 C1 4 1 4 0.3125 1.875 C0.209375 1.25625 0.10625 0.6375 0 0 Z " fill="#1B8EEE" transform="translate(381,75)"/>
</svg>
